<?xml version="1.0" encoding="UTF-8" standalone="no"?>
<!DOCTYPE svg PUBLIC "-//W3C//DTD SVG 1.1//EN" "http://www.w3.org/Graphics/SVG/1.1/DTD/svg11.dtd">
<svg width="100%" height="100%" viewBox="0 0 1080 1080" version="1.1" xmlns="http://www.w3.org/2000/svg" xmlns:xlink="http://www.w3.org/1999/xlink" xml:space="preserve" xmlns:serif="http://www.serif.com/" style="fill-rule:evenodd;clip-rule:evenodd;stroke-linejoin:round;stroke-miterlimit:2;">
    <path d="M269.676,741.28L128.372,838.67C106.403,853.812 76.677,847.665 62.031,824.953C47.386,802.241 53.331,771.509 75.3,756.368L355.918,562.957L269.676,741.28ZM355.918,562.957L561.552,137.769C570.376,119.524 588.412,108 608.142,108C627.872,108 645.909,119.524 654.732,137.769L1020.5,894.064C1028.57,910.758 1027.71,930.583 1018.22,946.46C1008.73,962.336 991.964,972 973.911,972L242.374,972C224.321,972 207.555,962.336 198.064,946.46C188.573,930.583 187.711,910.758 195.784,894.064L269.676,741.28L634.679,489.709C656.647,474.567 662.592,443.835 647.947,421.123C633.301,398.411 603.575,392.264 581.606,407.406L355.918,562.957Z" style="fill:#2a2b31;"/>
</svg>
